<?xml version='1.0' encoding='utf-8'?>
<svg xmlns="http://www.w3.org/2000/svg" height="100%" stroke-miterlimit="10" style="fill-rule:nonzero;clip-rule:evenodd;stroke-linecap:round;stroke-linejoin:round;" version="1.1" viewBox="0 0 3840 2160" width="100%"> <metadata> </metadata> <defs> <radialGradient cx="3754.15" cy="83.3106" gradientTransform="matrix(1 0 0 1 0 0)" gradientUnits="userSpaceOnUse" id="RadialGradient" r="4706.57"> <stop offset="0" stop-color="#9a6577"/> <stop offset="1" stop-color="#2b094b"/> </radialGradient> </defs> <clipPath id="ArtboardFrame"> <rect height="2160" width="3840" x="0" y="0"/> </clipPath> <g clip-path="url(#ArtboardFrame)" id="Layer-3"> <path d="M1.15266 0L3838.85 0C3839.48 0 3840 0.539856 3840 1.2058L3840 2162.88C3840 2163.55 3839.48 2164.09 3838.85 2164.09L1.15266 2164.09C0.516063 2164.09-2.27374e-13 2163.55-2.27374e-13 2162.88L-2.27374e-13 1.2058C-2.27374e-13 0.539856 0.516063 0 1.15266 0Z" fill="url(#RadialGradient)" fill-rule="evenodd" opacity="1" stroke="none"/> </g> <g clip-path="url(#ArtboardFrame)" id="Layer-1-copy"> <g opacity="1"> <path d="M-38.6852 1238.43L357.267 1238.43L357.267 2151.2L-38.6852 2151.2L-38.6852 1238.43Z" fill="#252131" fill-rule="evenodd" opacity="1" stroke="none"/> <path d="M357.282 1123.21L915.336 1123.21L915.336 2136.97L357.282 2136.97L357.282 1123.21Z" fill="#252131" fill-rule="evenodd" opacity="1" stroke="none"/> <path d="M2047.39 637.854L2270.61 637.854L2270.61 2136.97L2047.39 2136.97L2047.39 637.854Z" fill="#252131" fill-rule="evenodd" opacity="1" stroke="none"/> <path d="M1808.22 1312.83L2047.39 1312.83L2047.39 2136.97L1808.22 2136.97L1808.22 1312.83Z" fill="#252131" fill-rule="evenodd" opacity="1" stroke="none"/> <path d="M1553.11 1224.19L1808.22 1224.19L1808.22 2136.97L1553.11 2136.97L1553.11 1224.19Z" fill="#252131" fill-rule="evenodd" opacity="1" stroke="none"/> <path d="M1159.82 1651.83L1555.77 1651.83L1555.77 2136.97L1159.82 2136.97L1159.82 1651.83Z" fill="#252131" fill-rule="evenodd" opacity="1" stroke="none"/> <path d="M915.336 1224.19L1159.82 1224.19L1159.82 2136.97L915.336 2136.97L915.336 1224.19Z" fill="#252131" fill-rule="evenodd" opacity="1" stroke="none"/> <path d="M2270.61 1056.97L2539.01 1056.97L2539.01 2136.97L2270.61 2136.97L2270.61 1056.97Z" fill="#252131" fill-rule="evenodd" opacity="1" stroke="none"/> <path d="M2539.01 1517.57L2807.4 1517.57L2807.4 2136.97L2539.01 2136.97L2539.01 1517.57Z" fill="#252131" fill-rule="evenodd" opacity="1" stroke="none"/> <path d="M3213.98 785.951L3482.38 785.951L3482.38 2136.97L3213.98 2136.97L3213.98 785.951Z" fill="#252131" fill-rule="evenodd" opacity="1" stroke="none"/> <path d="M2807.4 1684.3L3075.8 1684.3L3075.8 2136.97L2807.4 2136.97L2807.4 1684.3Z" fill="#252131" fill-rule="evenodd" opacity="1" stroke="none"/> <path d="M3075.8 1056.97L3213.98 1056.97L3213.98 2136.97L3075.8 2136.97L3075.8 1056.97Z" fill="#252131" fill-rule="evenodd" opacity="1" stroke="none"/> <path d="M3482.38 1056.97L3801.31 1056.97L3801.31 2136.97L3482.38 2136.97L3482.38 1056.97Z" fill="#252131" fill-rule="evenodd" opacity="1" stroke="none"/> </g> </g> <g clip-path="url(#ArtboardFrame)" id="Layer-1"> <path d="M-5.20417e-18 1261.46L395.952 1261.46L395.952 2174.23L-5.20417e-18 2174.23L-5.20417e-18 1261.46Z" fill="#302458" fill-rule="evenodd" opacity="1" stroke="none"/> <path d="M395.967 1146.24L954.021 1146.24L954.021 2160L395.967 2160L395.967 1146.24Z" fill="#1d1538" fill-rule="evenodd" opacity="1" stroke="none"/> <path d="M2086.07 660.884L2309.29 660.884L2309.29 2160L2086.07 2160L2086.07 660.884Z" fill="#17112e" fill-rule="evenodd" opacity="1" stroke="none"/> <path d="M1846.91 1335.86L2086.07 1335.86L2086.07 2160L1846.91 2160L1846.91 1335.86Z" fill="#241d3f" fill-rule="evenodd" opacity="1" stroke="none"/> <path d="M1591.8 1247.22L1846.91 1247.22L1846.91 2160L1591.8 2160L1591.8 1247.22Z" fill="#1d1538" fill-rule="evenodd" opacity="1" stroke="none"/> <path d="M1198.5 1674.86L1594.45 1674.86L1594.45 2160L1198.5 2160L1198.5 1674.86Z" fill="#0e0a1c" fill-rule="evenodd" opacity="1" stroke="none"/> <path d="M954.021 1247.22L1198.5 1247.22L1198.5 2160L954.021 2160L954.021 1247.22Z" fill="#271c4d" fill-rule="evenodd" opacity="1" stroke="none"/> <path d="M2309.29 1080L2577.69 1080L2577.69 2160L2309.29 2160L2309.29 1080Z" fill="#1b113f" fill-rule="evenodd" opacity="1" stroke="none"/> <path d="M2577.69 1540.6L2846.09 1540.6L2846.09 2160L2577.69 2160L2577.69 1540.6Z" fill="#22164c" fill-rule="evenodd" opacity="1" stroke="none"/> <path d="M3252.67 808.981L3521.07 808.981L3521.07 2160L3252.67 2160L3252.67 808.981Z" fill="#1d1538" fill-rule="evenodd" opacity="1" stroke="none"/> <path d="M2846.09 1707.33L3114.48 1707.33L3114.48 2160L2846.09 2160L2846.09 1707.33Z" fill="#1b133b" fill-rule="evenodd" opacity="1" stroke="none"/> <path d="M3114.48 1080L3252.67 1080L3252.67 2160L3114.48 2160L3114.48 1080Z" fill="#1d1149" fill-rule="evenodd" opacity="1" stroke="none"/> <path d="M3521.07 1080L3840 1080L3840 2160L3521.07 2160L3521.07 1080Z" fill="#1e1441" fill-rule="evenodd" opacity="1" stroke="none"/> </g> <g clip-path="url(#ArtboardFrame)" id="Layer-2"> <path d="M46.4019 1338.69L108.734 1338.69L108.734 1427.04L46.4019 1427.04L46.4019 1338.69Z" fill="#edb066" fill-rule="evenodd" opacity="1" stroke="none"/> <path d="M46.4019 1609.22L108.734 1609.22L108.734 1697.57L46.4019 1697.57L46.4019 1609.22Z" fill="#edb066" fill-rule="evenodd" opacity="1" stroke="none"/> <path d="M46.4019 1885.35L108.734 1885.35L108.734 1973.7L46.4019 1973.7L46.4019 1885.35Z" fill="#f8ebde" fill-rule="evenodd" opacity="1" stroke="none"/> <path d="M166.81 1338.69L229.142 1338.69L229.142 1427.04L166.81 1427.04L166.81 1338.69Z" fill="#f8ebde" fill-rule="evenodd" opacity="1" stroke="none"/> <path d="M166.81 1609.22L229.142 1609.22L229.142 1697.57L166.81 1697.57L166.81 1609.22Z" fill="#edb066" fill-rule="evenodd" opacity="1" stroke="none"/> <path d="M166.81 1885.35L229.142 1885.35L229.142 1973.7L166.81 1973.7L166.81 1885.35Z" fill="#edb066" fill-rule="evenodd" opacity="1" stroke="none"/> <path d="M283.627 1338.69L345.959 1338.69L345.959 1427.04L283.627 1427.04L283.627 1338.69Z" fill="#f8ebde" fill-rule="evenodd" opacity="1" stroke="none"/> <path d="M283.627 1609.22L345.959 1609.22L345.959 1697.57L283.627 1697.57L283.627 1609.22Z" fill="#f8ebde" fill-rule="evenodd" opacity="1" stroke="none"/> <path d="M283.627 1885.35L345.959 1885.35L345.959 1973.7L283.627 1973.7L283.627 1885.35Z" fill="#edb066" fill-rule="evenodd" opacity="1" stroke="none"/> <path d="M283.627 1467.59L345.959 1467.59L345.959 1555.94L283.627 1555.94L283.627 1467.59Z" fill="#edb066" fill-rule="evenodd" opacity="1" stroke="none"/> <path d="M283.627 1738.12L345.959 1738.12L345.959 1826.47L283.627 1826.47L283.627 1738.12Z" fill="#f8ebde" fill-rule="evenodd" opacity="1" stroke="none"/> <path d="M283.627 2014.25L345.959 2014.25L345.959 2102.6L283.627 2102.6L283.627 2014.25Z" fill="#edb066" fill-rule="evenodd" opacity="1" stroke="none"/> <path d="M166.81 1467.59L229.142 1467.59L229.142 1555.94L166.81 1555.94L166.81 1467.59Z" fill="#edb066" fill-rule="evenodd" opacity="1" stroke="none"/> <path d="M166.81 1738.12L229.142 1738.12L229.142 1826.47L166.81 1826.47L166.81 1738.12Z" fill="#f8ebde" fill-rule="evenodd" opacity="1" stroke="none"/> <path d="M166.81 2014.25L229.142 2014.25L229.142 2102.6L166.81 2102.6L166.81 2014.25Z" fill="#edb066" fill-rule="evenodd" opacity="1" stroke="none"/> <path d="M51.2432 1467.59L113.575 1467.59L113.575 1555.94L51.2432 1555.94L51.2432 1467.59Z" fill="#f8ebde" fill-rule="evenodd" opacity="1" stroke="none"/> <path d="M51.2432 1738.12L113.575 1738.12L113.575 1826.47L51.2432 1826.47L51.2432 1738.12Z" fill="#f8ebde" fill-rule="evenodd" opacity="1" stroke="none"/> <path d="M51.2432 2014.25L113.575 2014.25L113.575 2102.6L51.2432 2102.6L51.2432 2014.25Z" fill="#f8ebde" fill-rule="evenodd" opacity="1" stroke="none"/> <path d="M493.409 1231.12L650.83 1231.12L650.83 1307.88L493.409 1307.88L493.409 1231.12Z" fill="#b5a18d" fill-rule="evenodd" opacity="1" stroke="none"/> <path d="M1629.65 1397.61L1787.07 1397.61L1787.07 1474.37L1629.65 1474.37L1629.65 1397.61Z" fill="#f4c2d3" fill-rule="evenodd" opacity="1" stroke="none"/> <path d="M493.409 1488.37L650.83 1488.37L650.83 1565.13L493.409 1565.13L493.409 1488.37Z" fill="#b5a18d" fill-rule="evenodd" opacity="1" stroke="none"/> <path d="M1629.65 1654.87L1787.07 1654.87L1787.07 1731.62L1629.65 1731.62L1629.65 1654.87Z" fill="#f4c2d3" fill-rule="evenodd" opacity="1" stroke="none"/> <path d="M493.409 1739.87L650.83 1739.87L650.83 1816.62L493.409 1816.62L493.409 1739.87Z" fill="#b5a18d" fill-rule="evenodd" opacity="1" stroke="none"/> <path d="M1629.65 1906.36L1787.07 1906.36L1787.07 1983.12L1629.65 1983.12L1629.65 1906.36Z" fill="#f4c2d3" fill-rule="evenodd" opacity="1" stroke="none"/> <path d="M493.409 1346.25L650.83 1346.25L650.83 1423.01L493.409 1423.01L493.409 1346.25Z" fill="#b5a18d" fill-rule="evenodd" opacity="1" stroke="none"/> <path d="M493.409 1603.51L650.83 1603.51L650.83 1680.26L493.409 1680.26L493.409 1603.51Z" fill="#b5a18d" fill-rule="evenodd" opacity="1" stroke="none"/> <path d="M493.409 1855L650.83 1855L650.83 1931.76L493.409 1931.76L493.409 1855Z" fill="#b5a18d" fill-rule="evenodd" opacity="1" stroke="none"/> <path d="M493.409 1970.13L650.83 1970.13L650.83 2046.89L493.409 2046.89L493.409 1970.13Z" fill="#b5a18d" fill-rule="evenodd" opacity="1" stroke="none"/> <path d="M1629.65 2021.49L1787.07 2021.49L1787.07 2098.25L1629.65 2098.25L1629.65 2021.49Z" fill="#f4c2d3" fill-rule="evenodd" opacity="1" stroke="none"/> <path d="M699.158 1231.12L856.579 1231.12L856.579 1307.88L699.158 1307.88L699.158 1231.12Z" fill="#b5a18d" fill-rule="evenodd" opacity="1" stroke="none"/> <path d="M699.158 1488.37L856.579 1488.37L856.579 1565.13L699.158 1565.13L699.158 1488.37Z" fill="#b5a18d" fill-rule="evenodd" opacity="1" stroke="none"/> <path d="M699.158 1739.87L856.579 1739.87L856.579 1816.62L699.158 1816.62L699.158 1739.87Z" fill="#b5a18d" fill-rule="evenodd" opacity="1" stroke="none"/> <path d="M1921.64 1686.42L2011.34 1686.42L2011.34 1761.89L1921.64 1761.89L1921.64 1686.42Z" fill="#f8ebde" fill-rule="evenodd" opacity="1" stroke="none"/> <path d="M699.158 1346.25L856.579 1346.25L856.579 1423.01L699.158 1423.01L699.158 1346.25Z" fill="#b5a18d" fill-rule="evenodd" opacity="1" stroke="none"/> <path d="M989.201 1345.95L1024.38 1345.95L1024.38 1422.86L989.201 1422.86L989.201 1345.95Z" fill="#f8ebde" fill-rule="evenodd" opacity="1" stroke="none"/> <path d="M989.201 1499.76L1024.38 1499.76L1024.38 1576.67L989.201 1576.67L989.201 1499.76Z" fill="#f8ebde" fill-rule="evenodd" opacity="1" stroke="none"/> <path d="M989.201 1626.71L1024.38 1626.71L1024.38 1703.61L989.201 1703.61L989.201 1626.71Z" fill="#f8ebde" fill-rule="evenodd" opacity="1" stroke="none"/> <path d="M989.201 1780.52L1024.38 1780.52L1024.38 1857.42L989.201 1857.42L989.201 1780.52Z" fill="#f8ebde" fill-rule="evenodd" opacity="1" stroke="none"/> <path d="M989.201 1934.33L1024.38 1934.33L1024.38 2011.23L989.201 2011.23L989.201 1934.33Z" fill="#f8ebde" fill-rule="evenodd" opacity="1" stroke="none"/> <path d="M989.201 2049.68L1024.38 2049.68L1024.38 2126.59L989.201 2126.59L989.201 2049.68Z" fill="#f8ebde" fill-rule="evenodd" opacity="1" stroke="none"/> <path d="M1921.64 1455.16L2011.34 1455.16L2011.34 1530.63L1921.64 1530.63L1921.64 1455.16Z" fill="#f8ebde" fill-rule="evenodd" opacity="1" stroke="none"/> <path d="M2110.39 717.669L2135.58 717.669L2135.58 745.325L2110.39 745.325L2110.39 717.669Z" fill="#f8ebde" fill-rule="evenodd" opacity="1" stroke="none"/> <path d="M2110.39 992.734L2135.58 992.734L2135.58 1020.39L2110.39 1020.39L2110.39 992.734Z" fill="#f6a0ff" fill-rule="evenodd" opacity="1" stroke="none"/> <path d="M2110.39 1266.26L2135.58 1266.26L2135.58 1293.91L2110.39 1293.91L2110.39 1266.26Z" fill="#f8ebde" fill-rule="evenodd" opacity="1" stroke="none"/> <path d="M2110.39 1540.68L2135.58 1540.68L2135.58 1568.33L2110.39 1568.33L2110.39 1540.68Z" fill="#f8ebde" fill-rule="evenodd" opacity="1" stroke="none"/> <path d="M3299.58 898.226L3324.77 898.226L3324.77 925.883L3299.58 925.883L3299.58 898.226Z" fill="#f8ebde" fill-rule="evenodd" opacity="1" stroke="none"/> <path d="M3299.58 1360.04L3324.77 1360.04L3324.77 1387.69L3299.58 1387.69L3299.58 1360.04Z" fill="#f8ebde" fill-rule="evenodd" opacity="1" stroke="none"/> <path d="M3299.58 1830.35L3324.77 1830.35L3324.77 1858.01L3299.58 1858.01L3299.58 1830.35Z" fill="#f8ebde" fill-rule="evenodd" opacity="1" stroke="none"/> <path d="M2920.2 1785.37L2937.53 1785.37L2937.53 1824.35L2920.2 1824.35L2920.2 1785.37Z" fill="#edb066" fill-rule="evenodd" opacity="1" stroke="none"/> <path d="M3593.24 1190.43L3618.43 1190.43L3618.43 1285.89L3593.24 1285.89L3593.24 1190.43Z" fill="#999c8f" fill-rule="evenodd" opacity="1" stroke="none"/> <path d="M2110.39 772.982L2135.58 772.982L2135.58 800.638L2110.39 800.638L2110.39 772.982Z" fill="#f8ebde" fill-rule="evenodd" opacity="1" stroke="none"/> <path d="M2110.39 1048.05L2135.58 1048.05L2135.58 1075.7L2110.39 1075.7L2110.39 1048.05Z" fill="#f8ebde" fill-rule="evenodd" opacity="1" stroke="none"/> <path d="M2110.39 1321.57L2135.58 1321.57L2135.58 1349.23L2110.39 1349.23L2110.39 1321.57Z" fill="#f8ebde" fill-rule="evenodd" opacity="1" stroke="none"/> <path d="M2110.39 1595.99L2135.58 1595.99L2135.58 1623.65L2110.39 1623.65L2110.39 1595.99Z" fill="#f8ebde" fill-rule="evenodd" opacity="1" stroke="none"/> <path d="M3299.58 953.539L3324.77 953.539L3324.77 981.195L3299.58 981.195L3299.58 953.539Z" fill="#f8ebde" fill-rule="evenodd" opacity="1" stroke="none"/> <path d="M3299.58 1415.35L3324.77 1415.35L3324.77 1443.01L3299.58 1443.01L3299.58 1415.35Z" fill="#f8ebde" fill-rule="evenodd" opacity="1" stroke="none"/> <path d="M3299.58 1885.66L3324.77 1885.66L3324.77 1913.32L3299.58 1913.32L3299.58 1885.66Z" fill="#f8ebde" fill-rule="evenodd" opacity="1" stroke="none"/> <path d="M2920.2 1863.32L2937.53 1863.32L2937.53 1902.3L2920.2 1902.3L2920.2 1863.32Z" fill="#edb066" fill-rule="evenodd" opacity="1" stroke="none"/> <path d="M3593.24 1381.35L3618.43 1381.35L3618.43 1476.81L3593.24 1476.81L3593.24 1381.35Z" fill="#999c8f" fill-rule="evenodd" opacity="1" stroke="none"/> <path d="M2110.39 828.294L2135.58 828.294L2135.58 855.951L2110.39 855.951L2110.39 828.294Z" fill="#f8ebde" fill-rule="evenodd" opacity="1" stroke="none"/> <path d="M2110.39 1103.36L2135.58 1103.36L2135.58 1131.02L2110.39 1131.02L2110.39 1103.36Z" fill="#f8ebde" fill-rule="evenodd" opacity="1" stroke="none"/> <path d="M2110.39 1376.88L2135.58 1376.88L2135.58 1404.54L2110.39 1404.54L2110.39 1376.88Z" fill="#d5ba7e" fill-rule="evenodd" opacity="1" stroke="none"/> <path d="M2110.39 1651.3L2135.58 1651.3L2135.58 1678.96L2110.39 1678.96L2110.39 1651.3Z" fill="#f8ebde" fill-rule="evenodd" opacity="1" stroke="none"/> <path d="M3299.58 1008.85L3324.77 1008.85L3324.77 1036.51L3299.58 1036.51L3299.58 1008.85Z" fill="#f8ebde" fill-rule="evenodd" opacity="1" stroke="none"/> <path d="M3299.58 1470.66L3324.77 1470.66L3324.77 1498.32L3299.58 1498.32L3299.58 1470.66Z" fill="#f8ebde" fill-rule="evenodd" opacity="1" stroke="none"/> <path d="M3299.58 1940.97L3324.77 1940.97L3324.77 1968.63L3299.58 1968.63L3299.58 1940.97Z" fill="#f8ebde" fill-rule="evenodd" opacity="1" stroke="none"/> <path d="M2920.2 1941.28L2937.53 1941.28L2937.53 1980.25L2920.2 1980.25L2920.2 1941.28Z" fill="#edb066" fill-rule="evenodd" opacity="1" stroke="none"/> <path d="M3593.24 1572.27L3618.43 1572.27L3618.43 1667.73L3593.24 1667.73L3593.24 1572.27Z" fill="#999c8f" fill-rule="evenodd" opacity="1" stroke="none"/> <path d="M2110.39 883.607L2135.58 883.607L2135.58 911.263L2110.39 911.263L2110.39 883.607Z" fill="#d5ba7e" fill-rule="evenodd" opacity="1" stroke="none"/> <path d="M2110.39 1158.67L2135.58 1158.67L2135.58 1186.33L2110.39 1186.33L2110.39 1158.67Z" fill="#d5ba7e" fill-rule="evenodd" opacity="1" stroke="none"/> <path d="M2110.39 1432.19L2135.58 1432.19L2135.58 1459.85L2110.39 1459.85L2110.39 1432.19Z" fill="#f8ebde" fill-rule="evenodd" opacity="1" stroke="none"/> <path d="M2110.39 1706.61L2135.58 1706.61L2135.58 1734.27L2110.39 1734.27L2110.39 1706.61Z" fill="#f8ebde" fill-rule="evenodd" opacity="1" stroke="none"/> <path d="M3299.58 1064.16L3324.77 1064.16L3324.77 1091.82L3299.58 1091.82L3299.58 1064.16Z" fill="#f8ebde" fill-rule="evenodd" opacity="1" stroke="none"/> <path d="M3299.58 1525.97L3324.77 1525.97L3324.77 1553.63L3299.58 1553.63L3299.58 1525.97Z" fill="#f8ebde" fill-rule="evenodd" opacity="1" stroke="none"/> <path d="M3299.58 1996.29L3324.77 1996.29L3324.77 2023.94L3299.58 2023.94L3299.58 1996.29Z" fill="#f8ebde" fill-rule="evenodd" opacity="1" stroke="none"/> <path d="M2920.2 2019.23L2937.53 2019.23L2937.53 2058.21L2920.2 2058.21L2920.2 2019.23Z" fill="#edb066" fill-rule="evenodd" opacity="1" stroke="none"/> <path d="M3593.24 1763.19L3618.43 1763.19L3618.43 1858.65L3593.24 1858.65L3593.24 1763.19Z" fill="#999c8f" fill-rule="evenodd" opacity="1" stroke="none"/> <path d="M2110.39 938.92L2135.58 938.92L2135.58 966.576L2110.39 966.576L2110.39 938.92Z" fill="#f8ebde" fill-rule="evenodd" opacity="1" stroke="none"/> <path d="M2110.39 1213.99L2135.58 1213.99L2135.58 1241.64L2110.39 1241.64L2110.39 1213.99Z" fill="#f8ebde" fill-rule="evenodd" opacity="1" stroke="none"/> <path d="M2110.39 1487.51L2135.58 1487.51L2135.58 1515.16L2110.39 1515.16L2110.39 1487.51Z" fill="#f8ebde" fill-rule="evenodd" opacity="1" stroke="none"/> <path d="M2110.39 1761.93L2135.58 1761.93L2135.58 1789.58L2110.39 1789.58L2110.39 1761.93Z" fill="#f8ebde" fill-rule="evenodd" opacity="1" stroke="none"/> <path d="M3299.58 1119.48L3324.77 1119.48L3324.77 1147.13L3299.58 1147.13L3299.58 1119.48Z" fill="#f8ebde" fill-rule="evenodd" opacity="1" stroke="none"/> <path d="M3299.58 1581.29L3324.77 1581.29L3324.77 1608.94L3299.58 1608.94L3299.58 1581.29Z" fill="#f8ebde" fill-rule="evenodd" opacity="1" stroke="none"/> <path d="M3299.58 2051.6L3324.77 2051.6L3324.77 2079.26L3299.58 2079.26L3299.58 2051.6Z" fill="#f8ebde" fill-rule="evenodd" opacity="1" stroke="none"/> <path d="M2920.2 2097.18L2937.53 2097.18L2937.53 2136.16L2920.2 2136.16L2920.2 2097.18Z" fill="#edb066" fill-rule="evenodd" opacity="1" stroke="none"/> <path d="M3593.24 1954.11L3618.43 1954.11L3618.43 2049.57L3593.24 2049.57L3593.24 1954.11Z" fill="#999c8f" fill-rule="evenodd" opacity="1" stroke="none"/> <path d="M2159.04 717.669L2184.23 717.669L2184.23 745.325L2159.04 745.325L2159.04 717.669Z" fill="#f8ebde" fill-rule="evenodd" opacity="1" stroke="none"/> <path d="M2159.04 992.734L2184.23 992.734L2184.23 1020.39L2159.04 1020.39L2159.04 992.734Z" fill="#f8ebde" fill-rule="evenodd" opacity="1" stroke="none"/> <path d="M2159.04 1266.26L2184.23 1266.26L2184.23 1293.91L2159.04 1293.91L2159.04 1266.26Z" fill="#d5ba7e" fill-rule="evenodd" opacity="1" stroke="none"/> <path d="M2159.04 1540.68L2184.23 1540.68L2184.23 1568.33L2159.04 1568.33L2159.04 1540.68Z" fill="#d5ba7e" fill-rule="evenodd" opacity="1" stroke="none"/> <path d="M3348.22 898.226L3373.41 898.226L3373.41 925.883L3348.22 925.883L3348.22 898.226Z" fill="#f8ebde" fill-rule="evenodd" opacity="1" stroke="none"/> <path d="M3348.22 1360.04L3373.41 1360.04L3373.41 1387.69L3348.22 1387.69L3348.22 1360.04Z" fill="#f8ebde" fill-rule="evenodd" opacity="1" stroke="none"/> <path d="M3348.22 1830.35L3373.41 1830.35L3373.41 1858.01L3348.22 1858.01L3348.22 1830.35Z" fill="#f8ebde" fill-rule="evenodd" opacity="1" stroke="none"/> <path d="M2953.68 1785.37L2971.02 1785.37L2971.02 1824.35L2953.68 1824.35L2953.68 1785.37Z" fill="#edb066" fill-rule="evenodd" opacity="1" stroke="none"/> <path d="M3641.89 1190.43L3667.08 1190.43L3667.08 1285.89L3641.89 1285.89L3641.89 1190.43Z" fill="#999c8f" fill-rule="evenodd" opacity="1" stroke="none"/> <path d="M2159.04 772.982L2184.23 772.982L2184.23 800.638L2159.04 800.638L2159.04 772.982Z" fill="#f5926e" fill-rule="evenodd" opacity="1" stroke="none"/> <path d="M2159.04 1048.05L2184.23 1048.05L2184.23 1075.7L2159.04 1075.7L2159.04 1048.05Z" fill="#d5ba7e" fill-rule="evenodd" opacity="1" stroke="none"/> <path d="M2159.04 1321.57L2184.23 1321.57L2184.23 1349.23L2159.04 1349.23L2159.04 1321.57Z" fill="#f6a0ff" fill-rule="evenodd" opacity="1" stroke="none"/> <path d="M2159.04 1595.99L2184.23 1595.99L2184.23 1623.65L2159.04 1623.65L2159.04 1595.99Z" fill="#f8ebde" fill-rule="evenodd" opacity="1" stroke="none"/> <path d="M3348.22 953.539L3373.41 953.539L3373.41 981.195L3348.22 981.195L3348.22 953.539Z" fill="#f8ebde" fill-rule="evenodd" opacity="1" stroke="none"/> <path d="M3348.22 1415.35L3373.41 1415.35L3373.41 1443.01L3348.22 1443.01L3348.22 1415.35Z" fill="#f8ebde" fill-rule="evenodd" opacity="1" stroke="none"/> <path d="M3348.22 1885.66L3373.41 1885.66L3373.41 1913.32L3348.22 1913.32L3348.22 1885.66Z" fill="#f8ebde" fill-rule="evenodd" opacity="1" stroke="none"/> <path d="M2953.68 1863.32L2971.02 1863.32L2971.02 1902.3L2953.68 1902.3L2953.68 1863.32Z" fill="#edb066" fill-rule="evenodd" opacity="1" stroke="none"/> <path d="M3641.89 1381.35L3667.08 1381.35L3667.08 1476.81L3641.89 1476.81L3641.89 1381.35Z" fill="#999c8f" fill-rule="evenodd" opacity="1" stroke="none"/> <path d="M2159.04 828.294L2184.23 828.294L2184.23 855.951L2159.04 855.951L2159.04 828.294Z" fill="#f6a0ff" fill-rule="evenodd" opacity="1" stroke="none"/> <path d="M2159.04 1103.36L2184.23 1103.36L2184.23 1131.02L2159.04 1131.02L2159.04 1103.36Z" fill="#f6a0ff" fill-rule="evenodd" opacity="1" stroke="none"/> <path d="M2159.04 1376.88L2184.23 1376.88L2184.23 1404.54L2159.04 1404.54L2159.04 1376.88Z" fill="#f8ebde" fill-rule="evenodd" opacity="1" stroke="none"/> <path d="M2159.04 1651.3L2184.23 1651.3L2184.23 1678.96L2159.04 1678.96L2159.04 1651.3Z" fill="#f8ebde" fill-rule="evenodd" opacity="1" stroke="none"/> <path d="M3348.22 1008.85L3373.41 1008.85L3373.41 1036.51L3348.22 1036.51L3348.22 1008.85Z" fill="#f8ebde" fill-rule="evenodd" opacity="1" stroke="none"/> <path d="M3348.22 1470.66L3373.41 1470.66L3373.41 1498.32L3348.22 1498.32L3348.22 1470.66Z" fill="#f8ebde" fill-rule="evenodd" opacity="1" stroke="none"/> <path d="M3348.22 1940.97L3373.41 1940.97L3373.41 1968.63L3348.22 1968.63L3348.22 1940.97Z" fill="#f8ebde" fill-rule="evenodd" opacity="1" stroke="none"/> <path d="M2953.68 1941.28L2971.02 1941.28L2971.02 1980.25L2953.68 1980.25L2953.68 1941.28Z" fill="#edb066" fill-rule="evenodd" opacity="1" stroke="none"/> <path d="M3641.89 1572.27L3667.08 1572.27L3667.08 1667.73L3641.89 1667.73L3641.89 1572.27Z" fill="#999c8f" fill-rule="evenodd" opacity="1" stroke="none"/> <path d="M2159.04 883.607L2184.23 883.607L2184.23 911.263L2159.04 911.263L2159.04 883.607Z" fill="#f8ebde" fill-rule="evenodd" opacity="1" stroke="none"/> <path d="M2159.04 1158.67L2184.23 1158.67L2184.23 1186.33L2159.04 1186.33L2159.04 1158.67Z" fill="#f8ebde" fill-rule="evenodd" opacity="1" stroke="none"/> <path d="M2159.04 1432.19L2184.23 1432.19L2184.23 1459.85L2159.04 1459.85L2159.04 1432.19Z" fill="#f8ebde" fill-rule="evenodd" opacity="1" stroke="none"/> <path d="M2159.04 1706.61L2184.23 1706.61L2184.23 1734.27L2159.04 1734.27L2159.04 1706.61Z" fill="#f8ebde" fill-rule="evenodd" opacity="1" stroke="none"/> <path d="M3348.22 1064.16L3373.41 1064.16L3373.41 1091.82L3348.22 1091.82L3348.22 1064.16Z" fill="#f8ebde" fill-rule="evenodd" opacity="1" stroke="none"/> <path d="M3348.22 1525.97L3373.41 1525.97L3373.41 1553.63L3348.22 1553.63L3348.22 1525.97Z" fill="#f8ebde" fill-rule="evenodd" opacity="1" stroke="none"/> <path d="M3348.22 1996.29L3373.41 1996.29L3373.41 2023.94L3348.22 2023.94L3348.22 1996.29Z" fill="#f8ebde" fill-rule="evenodd" opacity="1" stroke="none"/> <path d="M2953.68 2019.23L2971.02 2019.23L2971.02 2058.21L2953.68 2058.21L2953.68 2019.23Z" fill="#edb066" fill-rule="evenodd" opacity="1" stroke="none"/> <path d="M3641.89 1763.19L3667.08 1763.19L3667.08 1858.65L3641.89 1858.65L3641.89 1763.19Z" fill="#999c8f" fill-rule="evenodd" opacity="1" stroke="none"/> <path d="M2159.04 938.92L2184.23 938.92L2184.23 966.576L2159.04 966.576L2159.04 938.92Z" fill="#f8ebde" fill-rule="evenodd" opacity="1" stroke="none"/> <path d="M2159.04 1213.99L2184.23 1213.99L2184.23 1241.64L2159.04 1241.64L2159.04 1213.99Z" fill="#f8ebde" fill-rule="evenodd" opacity="1" stroke="none"/> <path d="M2159.04 1487.51L2184.23 1487.51L2184.23 1515.16L2159.04 1515.16L2159.04 1487.51Z" fill="#d5ba7e" fill-rule="evenodd" opacity="1" stroke="none"/> <path d="M2159.04 1761.93L2184.23 1761.93L2184.23 1789.58L2159.04 1789.58L2159.04 1761.93Z" fill="#f8ebde" fill-rule="evenodd" opacity="1" stroke="none"/> <path d="M3348.22 1119.48L3373.41 1119.48L3373.41 1147.13L3348.22 1147.13L3348.22 1119.48Z" fill="#f8ebde" fill-rule="evenodd" opacity="1" stroke="none"/> <path d="M3348.22 1581.29L3373.41 1581.29L3373.41 1608.94L3348.22 1608.94L3348.22 1581.29Z" fill="#f8ebde" fill-rule="evenodd" opacity="1" stroke="none"/> <path d="M3348.22 2051.6L3373.41 2051.6L3373.41 2079.26L3348.22 2079.26L3348.22 2051.6Z" fill="#f8ebde" fill-rule="evenodd" opacity="1" stroke="none"/> <path d="M2953.68 2097.18L2971.02 2097.18L2971.02 2136.16L2953.68 2136.16L2953.68 2097.18Z" fill="#edb066" fill-rule="evenodd" opacity="1" stroke="none"/> <path d="M3641.89 1954.11L3667.08 1954.11L3667.08 2049.57L3641.89 2049.57L3641.89 1954.11Z" fill="#999c8f" fill-rule="evenodd" opacity="1" stroke="none"/> <path d="M2209.41 717.669L2234.6 717.669L2234.6 745.325L2209.41 745.325L2209.41 717.669Z" fill="#f8ebde" fill-rule="evenodd" opacity="1" stroke="none"/> <path d="M2209.41 992.734L2234.6 992.734L2234.6 1020.39L2209.41 1020.39L2209.41 992.734Z" fill="#f8ebde" fill-rule="evenodd" opacity="1" stroke="none"/> <path d="M2209.41 1266.26L2234.6 1266.26L2234.6 1293.91L2209.41 1293.91L2209.41 1266.26Z" fill="#d5ba7e" fill-rule="evenodd" opacity="1" stroke="none"/> <path d="M2209.41 1540.68L2234.6 1540.68L2234.6 1568.33L2209.41 1568.33L2209.41 1540.68Z" fill="#f8ebde" fill-rule="evenodd" opacity="1" stroke="none"/> <path d="M3398.6 898.226L3423.78 898.226L3423.78 925.883L3398.6 925.883L3398.6 898.226Z" fill="#f8ebde" fill-rule="evenodd" opacity="1" stroke="none"/> <path d="M3398.6 1360.04L3423.78 1360.04L3423.78 1387.69L3398.6 1387.69L3398.6 1360.04Z" fill="#f8ebde" fill-rule="evenodd" opacity="1" stroke="none"/> <path d="M3398.6 1830.35L3423.78 1830.35L3423.78 1858.01L3398.6 1858.01L3398.6 1830.35Z" fill="#f8ebde" fill-rule="evenodd" opacity="1" stroke="none"/> <path d="M2988.36 1785.37L3005.7 1785.37L3005.7 1824.35L2988.36 1824.35L2988.36 1785.37Z" fill="#edb066" fill-rule="evenodd" opacity="1" stroke="none"/> <path d="M3692.26 1190.43L3717.45 1190.43L3717.45 1285.89L3692.26 1285.89L3692.26 1190.43Z" fill="#999c8f" fill-rule="evenodd" opacity="1" stroke="none"/> <path d="M2209.41 772.982L2234.6 772.982L2234.6 800.638L2209.41 800.638L2209.41 772.982Z" fill="#f8ebde" fill-rule="evenodd" opacity="1" stroke="none"/> <path d="M2209.41 1048.05L2234.6 1048.05L2234.6 1075.7L2209.41 1075.7L2209.41 1048.05Z" fill="#f8ebde" fill-rule="evenodd" opacity="1" stroke="none"/> <path d="M2209.41 1321.57L2234.6 1321.57L2234.6 1349.23L2209.41 1349.23L2209.41 1321.57Z" fill="#f8ebde" fill-rule="evenodd" opacity="1" stroke="none"/> <path d="M2209.41 1595.99L2234.6 1595.99L2234.6 1623.65L2209.41 1623.65L2209.41 1595.99Z" fill="#f6a0ff" fill-rule="evenodd" opacity="1" stroke="none"/> <path d="M3398.6 953.539L3423.78 953.539L3423.78 981.195L3398.6 981.195L3398.6 953.539Z" fill="#f8ebde" fill-rule="evenodd" opacity="1" stroke="none"/> <path d="M3398.6 1415.35L3423.78 1415.35L3423.78 1443.01L3398.6 1443.01L3398.6 1415.35Z" fill="#f8ebde" fill-rule="evenodd" opacity="1" stroke="none"/> <path d="M3398.6 1885.66L3423.78 1885.66L3423.78 1913.32L3398.6 1913.32L3398.6 1885.66Z" fill="#f8ebde" fill-rule="evenodd" opacity="1" stroke="none"/> <path d="M2988.36 1863.32L3005.7 1863.32L3005.7 1902.3L2988.36 1902.3L2988.36 1863.32Z" fill="#edb066" fill-rule="evenodd" opacity="1" stroke="none"/> <path d="M3692.26 1381.35L3717.45 1381.35L3717.45 1476.81L3692.26 1476.81L3692.26 1381.35Z" fill="#999c8f" fill-rule="evenodd" opacity="1" stroke="none"/> <path d="M2209.41 828.294L2234.6 828.294L2234.6 855.951L2209.41 855.951L2209.41 828.294Z" fill="#f8ebde" fill-rule="evenodd" opacity="1" stroke="none"/> <path d="M2209.41 1103.36L2234.6 1103.36L2234.6 1131.02L2209.41 1131.02L2209.41 1103.36Z" fill="#d5ba7e" fill-rule="evenodd" opacity="1" stroke="none"/> <path d="M2209.41 1376.88L2234.6 1376.88L2234.6 1404.54L2209.41 1404.54L2209.41 1376.88Z" fill="#d5ba7e" fill-rule="evenodd" opacity="1" stroke="none"/> <path d="M2209.41 1651.3L2234.6 1651.3L2234.6 1678.96L2209.41 1678.96L2209.41 1651.3Z" fill="#f8ebde" fill-rule="evenodd" opacity="1" stroke="none"/> <path d="M3398.6 1008.85L3423.78 1008.85L3423.78 1036.51L3398.6 1036.51L3398.6 1008.85Z" fill="#f8ebde" fill-rule="evenodd" opacity="1" stroke="none"/> <path d="M3398.6 1470.66L3423.78 1470.66L3423.78 1498.32L3398.6 1498.32L3398.6 1470.66Z" fill="#f8ebde" fill-rule="evenodd" opacity="1" stroke="none"/> <path d="M3398.6 1937.07L3423.78 1937.07L3423.78 1964.72L3398.6 1964.72L3398.6 1937.07Z" fill="#f8ebde" fill-rule="evenodd" opacity="1" stroke="none"/> <path d="M2988.36 1941.28L3005.7 1941.28L3005.7 1980.25L2988.36 1980.25L2988.36 1941.28Z" fill="#edb066" fill-rule="evenodd" opacity="1" stroke="none"/> <path d="M3692.26 1572.27L3717.45 1572.27L3717.45 1667.73L3692.26 1667.73L3692.26 1572.27Z" fill="#999c8f" fill-rule="evenodd" opacity="1" stroke="none"/> <path d="M2209.41 883.607L2234.6 883.607L2234.6 911.263L2209.41 911.263L2209.41 883.607Z" fill="#f8ebde" fill-rule="evenodd" opacity="1" stroke="none"/> <path d="M2209.41 1158.67L2234.6 1158.67L2234.6 1186.33L2209.41 1186.33L2209.41 1158.67Z" fill="#f8ebde" fill-rule="evenodd" opacity="1" stroke="none"/> <path d="M2209.41 1432.19L2234.6 1432.19L2234.6 1459.85L2209.41 1459.85L2209.41 1432.19Z" fill="#f8ebde" fill-rule="evenodd" opacity="1" stroke="none"/> <path d="M2209.41 1706.61L2234.6 1706.61L2234.6 1734.27L2209.41 1734.27L2209.41 1706.61Z" fill="#d5ba7e" fill-rule="evenodd" opacity="1" stroke="none"/> <path d="M3398.6 1064.16L3423.78 1064.16L3423.78 1091.82L3398.6 1091.82L3398.6 1064.16Z" fill="#f8ebde" fill-rule="evenodd" opacity="1" stroke="none"/> <path d="M3398.6 1525.97L3423.78 1525.97L3423.78 1553.63L3398.6 1553.63L3398.6 1525.97Z" fill="#f8ebde" fill-rule="evenodd" opacity="1" stroke="none"/> <path d="M3398.6 1996.29L3423.78 1996.29L3423.78 2023.94L3398.6 2023.94L3398.6 1996.29Z" fill="#f8ebde" fill-rule="evenodd" opacity="1" stroke="none"/> <path d="M2988.36 2019.23L3005.7 2019.23L3005.7 2058.21L2988.36 2058.21L2988.36 2019.23Z" fill="#edb066" fill-rule="evenodd" opacity="1" stroke="none"/> <path d="M3692.26 1763.19L3717.45 1763.19L3717.45 1858.65L3692.26 1858.65L3692.26 1763.19Z" fill="#999c8f" fill-rule="evenodd" opacity="1" stroke="none"/> <path d="M2209.41 938.92L2234.6 938.92L2234.6 966.576L2209.41 966.576L2209.41 938.92Z" fill="#d5ba7e" fill-rule="evenodd" opacity="1" stroke="none"/> <path d="M2209.41 1213.99L2234.6 1213.99L2234.6 1241.64L2209.41 1241.64L2209.41 1213.99Z" fill="#f8ebde" fill-rule="evenodd" opacity="1" stroke="none"/> <path d="M2209.41 1487.51L2234.6 1487.51L2234.6 1515.16L2209.41 1515.16L2209.41 1487.51Z" fill="#f6a0ff" fill-rule="evenodd" opacity="1" stroke="none"/> <path d="M2209.41 1761.93L2234.6 1761.93L2234.6 1789.58L2209.41 1789.58L2209.41 1761.93Z" fill="#f8ebde" fill-rule="evenodd" opacity="1" stroke="none"/> <path d="M3398.6 1119.48L3423.78 1119.48L3423.78 1147.13L3398.6 1147.13L3398.6 1119.48Z" fill="#f8ebde" fill-rule="evenodd" opacity="1" stroke="none"/> <path d="M3398.6 1581.29L3423.78 1581.29L3423.78 1608.94L3398.6 1608.94L3398.6 1581.29Z" fill="#f8ebde" fill-rule="evenodd" opacity="1" stroke="none"/> <path d="M3398.6 2051.6L3423.78 2051.6L3423.78 2079.26L3398.6 2079.26L3398.6 2051.6Z" fill="#f8ebde" fill-rule="evenodd" opacity="1" stroke="none"/> <path d="M2988.36 2097.18L3005.7 2097.18L3005.7 2136.16L2988.36 2136.16L2988.36 2097.18Z" fill="#edb066" fill-rule="evenodd" opacity="1" stroke="none"/> <path d="M3692.26 1954.11L3717.45 1954.11L3717.45 2049.57L3692.26 2049.57L3692.26 1954.11Z" fill="#999c8f" fill-rule="evenodd" opacity="1" stroke="none"/> <path d="M2259.78 717.669L2284.97 717.669L2284.97 745.325L2259.78 745.325L2259.78 717.669Z" fill="#f8ebde" fill-rule="evenodd" opacity="1" stroke="none"/> <path d="M2259.78 992.734L2284.97 992.734L2284.97 1020.39L2259.78 1020.39L2259.78 992.734Z" fill="#d5ba7e" fill-rule="evenodd" opacity="1" stroke="none"/> <path d="M2259.78 1266.26L2284.97 1266.26L2284.97 1293.91L2259.78 1293.91L2259.78 1266.26Z" fill="#f8ebde" fill-rule="evenodd" opacity="1" stroke="none"/> <path d="M2259.78 1540.68L2284.97 1540.68L2284.97 1568.33L2259.78 1568.33L2259.78 1540.68Z" fill="#f8ebde" fill-rule="evenodd" opacity="1" stroke="none"/> <path d="M3448.97 898.226L3474.16 898.226L3474.16 925.883L3448.97 925.883L3448.97 898.226Z" fill="#f8ebde" fill-rule="evenodd" opacity="1" stroke="none"/> <path d="M3448.97 1360.04L3474.16 1360.04L3474.16 1387.69L3448.97 1387.69L3448.97 1360.04Z" fill="#f8ebde" fill-rule="evenodd" opacity="1" stroke="none"/> <path d="M3448.97 1830.35L3474.16 1830.35L3474.16 1858.01L3448.97 1858.01L3448.97 1830.35Z" fill="#f8ebde" fill-rule="evenodd" opacity="1" stroke="none"/> <path d="M3023.04 1785.37L3040.38 1785.37L3040.38 1824.35L3023.04 1824.35L3023.04 1785.37Z" fill="#edb066" fill-rule="evenodd" opacity="1" stroke="none"/> <path d="M3742.64 1190.43L3767.82 1190.43L3767.82 1285.89L3742.64 1285.89L3742.64 1190.43Z" fill="#999c8f" fill-rule="evenodd" opacity="1" stroke="none"/> <path d="M2259.78 772.982L2284.97 772.982L2284.97 800.638L2259.78 800.638L2259.78 772.982Z" fill="#f5926e" fill-rule="evenodd" opacity="1" stroke="none"/> <path d="M2259.78 1048.05L2284.97 1048.05L2284.97 1075.7L2259.78 1075.7L2259.78 1048.05Z" fill="#d5ba7e" fill-rule="evenodd" opacity="1" stroke="none"/> <path d="M2259.78 1321.57L2284.97 1321.57L2284.97 1349.23L2259.78 1349.23L2259.78 1321.57Z" fill="#f8ebde" fill-rule="evenodd" opacity="1" stroke="none"/> <path d="M2259.78 1595.99L2284.97 1595.99L2284.97 1623.65L2259.78 1623.65L2259.78 1595.99Z" fill="#f8ebde" fill-rule="evenodd" opacity="1" stroke="none"/> <path d="M3448.97 953.539L3474.16 953.539L3474.16 981.195L3448.97 981.195L3448.97 953.539Z" fill="#f8ebde" fill-rule="evenodd" opacity="1" stroke="none"/> <path d="M3448.97 1415.35L3474.16 1415.35L3474.16 1443.01L3448.97 1443.01L3448.97 1415.35Z" fill="#f8ebde" fill-rule="evenodd" opacity="1" stroke="none"/> <path d="M3448.97 1885.66L3474.16 1885.66L3474.16 1913.32L3448.97 1913.32L3448.97 1885.66Z" fill="#f8ebde" fill-rule="evenodd" opacity="1" stroke="none"/> <path d="M3023.04 1863.32L3040.38 1863.32L3040.38 1902.3L3023.04 1902.3L3023.04 1863.32Z" fill="#edb066" fill-rule="evenodd" opacity="1" stroke="none"/> <path d="M3742.64 1381.35L3767.82 1381.35L3767.82 1476.81L3742.64 1476.81L3742.64 1381.35Z" fill="#999c8f" fill-rule="evenodd" opacity="1" stroke="none"/> <path d="M2259.78 828.294L2284.97 828.294L2284.97 855.951L2259.78 855.951L2259.78 828.294Z" fill="#f8ebde" fill-rule="evenodd" opacity="1" stroke="none"/> <path d="M2259.78 1103.36L2284.97 1103.36L2284.97 1131.02L2259.78 1131.02L2259.78 1103.36Z" fill="#f8ebde" fill-rule="evenodd" opacity="1" stroke="none"/> <path d="M2259.78 1376.88L2284.97 1376.88L2284.97 1404.54L2259.78 1404.54L2259.78 1376.88Z" fill="#f8ebde" fill-rule="evenodd" opacity="1" stroke="none"/> <path d="M2259.78 1651.3L2284.97 1651.3L2284.97 1678.96L2259.78 1678.96L2259.78 1651.3Z" fill="#f8ebde" fill-rule="evenodd" opacity="1" stroke="none"/> <path d="M3448.97 1008.85L3474.16 1008.85L3474.16 1036.51L3448.97 1036.51L3448.97 1008.85Z" fill="#f8ebde" fill-rule="evenodd" opacity="1" stroke="none"/> <path d="M3448.97 1470.66L3474.16 1470.66L3474.16 1498.32L3448.97 1498.32L3448.97 1470.66Z" fill="#f8ebde" fill-rule="evenodd" opacity="1" stroke="none"/> <path d="M3448.97 1940.97L3474.16 1940.97L3474.16 1968.63L3448.97 1968.63L3448.97 1940.97Z" fill="#f8ebde" fill-rule="evenodd" opacity="1" stroke="none"/> <path d="M3023.04 1941.28L3040.38 1941.28L3040.38 1980.25L3023.04 1980.25L3023.04 1941.28Z" fill="#edb066" fill-rule="evenodd" opacity="1" stroke="none"/> <path d="M3742.64 1572.27L3767.82 1572.27L3767.82 1667.73L3742.64 1667.73L3742.64 1572.27Z" fill="#999c8f" fill-rule="evenodd" opacity="1" stroke="none"/> <path d="M2259.78 883.607L2284.97 883.607L2284.97 911.263L2259.78 911.263L2259.78 883.607Z" fill="#f8ebde" fill-rule="evenodd" opacity="1" stroke="none"/> <path d="M2259.78 1158.67L2284.97 1158.67L2284.97 1186.33L2259.78 1186.33L2259.78 1158.67Z" fill="#d5ba7e" fill-rule="evenodd" opacity="1" stroke="none"/> <path d="M2259.78 1432.19L2284.97 1432.19L2284.97 1459.85L2259.78 1459.85L2259.78 1432.19Z" fill="#f8ebde" fill-rule="evenodd" opacity="1" stroke="none"/> <path d="M2259.78 1706.61L2284.97 1706.61L2284.97 1734.27L2259.78 1734.27L2259.78 1706.61Z" fill="#f8ebde" fill-rule="evenodd" opacity="1" stroke="none"/> <path d="M3448.97 1064.16L3474.16 1064.16L3474.16 1091.82L3448.97 1091.82L3448.97 1064.16Z" fill="#f8ebde" fill-rule="evenodd" opacity="1" stroke="none"/> <path d="M3448.97 1525.97L3474.16 1525.97L3474.16 1553.63L3448.97 1553.63L3448.97 1525.97Z" fill="#f8ebde" fill-rule="evenodd" opacity="1" stroke="none"/> <path d="M3448.97 1996.29L3474.16 1996.29L3474.16 2023.94L3448.97 2023.94L3448.97 1996.29Z" fill="#f8ebde" fill-rule="evenodd" opacity="1" stroke="none"/> <path d="M3023.04 2019.23L3040.38 2019.23L3040.38 2058.21L3023.04 2058.21L3023.04 2019.23Z" fill="#edb066" fill-rule="evenodd" opacity="1" stroke="none"/> <path d="M3742.64 1763.19L3767.82 1763.19L3767.82 1858.65L3742.64 1858.65L3742.64 1763.19Z" fill="#999c8f" fill-rule="evenodd" opacity="1" stroke="none"/> <path d="M2259.78 938.92L2284.97 938.92L2284.97 966.576L2259.78 966.576L2259.78 938.92Z" fill="#f6a0ff" fill-rule="evenodd" opacity="1" stroke="none"/> <path d="M2259.78 1213.99L2284.97 1213.99L2284.97 1241.64L2259.78 1241.64L2259.78 1213.99Z" fill="#f8ebde" fill-rule="evenodd" opacity="1" stroke="none"/> <path d="M2259.78 1487.51L2284.97 1487.51L2284.97 1515.16L2259.78 1515.16L2259.78 1487.51Z" fill="#f8ebde" fill-rule="evenodd" opacity="1" stroke="none"/> <path d="M2259.78 1761.93L2284.97 1761.93L2284.97 1789.58L2259.78 1789.58L2259.78 1761.93Z" fill="#f8ebde" fill-rule="evenodd" opacity="1" stroke="none"/> <path d="M3448.97 1119.48L3474.16 1119.48L3474.16 1147.13L3448.97 1147.13L3448.97 1119.48Z" fill="#f8ebde" fill-rule="evenodd" opacity="1" stroke="none"/> <path d="M3448.97 1581.29L3474.16 1581.29L3474.16 1608.94L3448.97 1608.94L3448.97 1581.29Z" fill="#f8ebde" fill-rule="evenodd" opacity="1" stroke="none"/> <path d="M3448.97 2051.6L3474.16 2051.6L3474.16 2079.26L3448.97 2079.26L3448.97 2051.6Z" fill="#f8ebde" fill-rule="evenodd" opacity="1" stroke="none"/> <path d="M3023.04 2097.18L3040.38 2097.18L3040.38 2136.16L3023.04 2136.16L3023.04 2097.18Z" fill="#edb066" fill-rule="evenodd" opacity="1" stroke="none"/> <path d="M3742.64 1954.11L3767.82 1954.11L3767.82 2049.57L3742.64 2049.57L3742.64 1954.11Z" fill="#999c8f" fill-rule="evenodd" opacity="1" stroke="none"/> <path d="M699.158 1603.51L856.579 1603.51L856.579 1680.26L699.158 1680.26L699.158 1603.51Z" fill="#b5a18d" fill-rule="evenodd" opacity="1" stroke="none"/> <path d="M699.158 1855L856.579 1855L856.579 1931.76L699.158 1931.76L699.158 1855Z" fill="#b5a18d" fill-rule="evenodd" opacity="1" stroke="none"/> <path d="M699.158 1970.13L856.579 1970.13L856.579 2046.89L699.158 2046.89L699.158 1970.13Z" fill="#b5a18d" fill-rule="evenodd" opacity="1" stroke="none"/> <path d="M1921.64 1799.63L2011.34 1799.63L2011.34 1875.1L1921.64 1875.1L1921.64 1799.63Z" fill="#f8ebde" fill-rule="evenodd" opacity="1" stroke="none"/> <path d="M2353.79 1167.16L2443.49 1167.16L2443.49 1242.64L2353.79 1242.64L2353.79 1167.16Z" fill="#ad9597" fill-rule="evenodd" opacity="1" stroke="none"/> <path d="M2353.79 1355.85L2443.49 1355.85L2443.49 1431.32L2353.79 1431.32L2353.79 1355.85Z" fill="#ad9597" fill-rule="evenodd" opacity="1" stroke="none"/> <path d="M2353.79 1544.53L2443.49 1544.53L2443.49 1620L2353.79 1620L2353.79 1544.53Z" fill="#ad9597" fill-rule="evenodd" opacity="1" stroke="none"/> <path d="M2353.79 1733.21L2443.49 1733.21L2443.49 1808.68L2353.79 1808.68L2353.79 1733.21Z" fill="#ad9597" fill-rule="evenodd" opacity="1" stroke="none"/> <path d="M2443.49 1167.16L2533.19 1167.16L2533.19 1242.64L2443.49 1242.64L2443.49 1167.16Z" fill="#ad9597" fill-rule="evenodd" opacity="1" stroke="none"/> <path d="M3183.58 1204.9L3228.43 1204.9L3228.43 1280.37L3183.58 1280.37L3183.58 1204.9Z" fill="#a7c9f8" fill-rule="evenodd" opacity="1" stroke="none"/> <path d="M3183.58 1469.05L3228.43 1469.05L3228.43 1544.53L3183.58 1544.53L3183.58 1469.05Z" fill="#a7c9f8" fill-rule="evenodd" opacity="1" stroke="none"/> <path d="M3183.58 1733.21L3228.43 1733.21L3228.43 1808.68L3183.58 1808.68L3183.58 1733.21Z" fill="#a7c9f8" fill-rule="evenodd" opacity="1" stroke="none"/> <path d="M3183.58 1997.36L3228.43 1997.36L3228.43 2072.84L3183.58 2072.84L3183.58 1997.36Z" fill="#a7c9f8" fill-rule="evenodd" opacity="1" stroke="none"/> <path d="M2443.49 1355.85L2533.19 1355.85L2533.19 1431.32L2443.49 1431.32L2443.49 1355.85Z" fill="#ad9597" fill-rule="evenodd" opacity="1" stroke="none"/> <path d="M2443.49 1544.53L2533.19 1544.53L2533.19 1620L2443.49 1620L2443.49 1544.53Z" fill="#ad9597" fill-rule="evenodd" opacity="1" stroke="none"/> <path d="M2443.49 1733.21L2533.19 1733.21L2533.19 1808.68L2443.49 1808.68L2443.49 1733.21Z" fill="#ad9597" fill-rule="evenodd" opacity="1" stroke="none"/> <path d="M1283.95 1686.61L1273.02 2210.16" fill="#f8ebde" fill-rule="evenodd" opacity="1" stroke="none"/> <path d="M1271.89 1674.86L1269.23 2160" fill="none" fill-rule="evenodd" opacity="1" stroke="#f8ebde" stroke-linecap="butt" stroke-linejoin="miter" stroke-width="6.15679"/> <path d="M1353.26 1674.86L1350.6 2160" fill="none" fill-rule="evenodd" opacity="1" stroke="#f8ebde" stroke-linecap="butt" stroke-linejoin="miter" stroke-width="6.15679"/> <path d="M1437.8 1674.86L1435.13 2160" fill="none" fill-rule="evenodd" opacity="1" stroke="#f8ebde" stroke-linecap="butt" stroke-linejoin="miter" stroke-width="6.15679"/> <path d="M1521.77 1674.86L1519.1 2160" fill="none" fill-rule="evenodd" opacity="1" stroke="#f8ebde" stroke-linecap="butt" stroke-linejoin="miter" stroke-width="6.15679"/> <path d="M2790.02 1607.71L2602.11 1607.56" fill="none" fill-rule="evenodd" opacity="1" stroke="#f8ebde" stroke-linecap="butt" stroke-linejoin="miter" stroke-width="6.15679"/> <path d="M2790.02 1653.79L2602.11 1653.64" fill="none" fill-rule="evenodd" opacity="1" stroke="#f8ebde" stroke-linecap="butt" stroke-linejoin="miter" stroke-width="6.15679"/> <path d="M2790.02 1706.9L2602.11 1706.75" fill="none" fill-rule="evenodd" opacity="1" stroke="#f8ebde" stroke-linecap="butt" stroke-linejoin="miter" stroke-width="6.15679"/> <path d="M2790.02 1759.34L2602.11 1759.2" fill="none" fill-rule="evenodd" opacity="1" stroke="#f8ebde" stroke-linecap="butt" stroke-linejoin="miter" stroke-width="6.15679"/> <path d="M2790.02 1812.42L2602.11 1812.27" fill="none" fill-rule="evenodd" opacity="1" stroke="#f8ebde" stroke-linecap="butt" stroke-linejoin="miter" stroke-width="6.15679"/> <path d="M2790.02 1853.12L2602.11 1852.98" fill="none" fill-rule="evenodd" opacity="1" stroke="#f8ebde" stroke-linecap="butt" stroke-linejoin="miter" stroke-width="6.15679"/> <path d="M2790.02 1903.93L2602.11 1903.78" fill="none" fill-rule="evenodd" opacity="1" stroke="#f8ebde" stroke-linecap="butt" stroke-linejoin="miter" stroke-width="6.15679"/> <path d="M2790.02 1958.25L2602.11 1958.1" fill="none" fill-rule="evenodd" opacity="1" stroke="#f8ebde" stroke-linecap="butt" stroke-linejoin="miter" stroke-width="6.15679"/> <path d="M2790.02 2012.77L2602.11 2012.63" fill="none" fill-rule="evenodd" opacity="1" stroke="#f8ebde" stroke-linecap="butt" stroke-linejoin="miter" stroke-width="6.15679"/> <path d="M2790.02 2066.29L2602.11 2066.14" fill="none" fill-rule="evenodd" opacity="1" stroke="#f8ebde" stroke-linecap="butt" stroke-linejoin="miter" stroke-width="6.15679"/> <path d="M2790.02 2123.92L2602.11 2123.77" fill="none" fill-rule="evenodd" opacity="1" stroke="#f8ebde" stroke-linecap="butt" stroke-linejoin="miter" stroke-width="6.15679"/> <path d="M363.68 157.555C302.01 288.293 322.45 448.674 421.496 543.703C520.543 638.733 666.288 637.799 773.636 550.887C676.658 578.305 565.556 551.535 479.519 468.986C393.483 386.439 353.447 268.196 363.68 157.555Z" fill="#dee9f8" fill-rule="evenodd" opacity="1" stroke="none"/> <path d="M1039.69 483.389L1041.71 479.169L1037.73 476.983L1041.94 477.446L1043.11 473.105L1043.87 477.353L1048.4 477.114L1044.39 479.302L1046.29 483.47L1042.98 479.816L1039.69 483.389Z" fill="#dee9f8" fill-rule="evenodd" opacity="1" stroke="none"/> <path d="M1205.16 447.11L1207.17 442.89L1203.2 440.703L1207.41 441.166L1208.58 436.825L1209.34 441.074L1213.87 440.835L1209.86 443.023L1211.76 447.191L1208.45 443.537L1205.16 447.11Z" fill="#dee9f8" fill-rule="evenodd" opacity="1" stroke="none"/> <path d="M951.427 286.443L953.442 282.223L949.464 280.037L953.676 280.5L954.848 276.159L955.611 280.407L960.139 280.168L956.126 282.356L958.024 286.524L954.717 282.87L951.427 286.443Z" fill="#dee9f8" fill-rule="evenodd" opacity="1" stroke="none"/> <path d="M1447.23 219.067L1449.25 214.847L1445.27 212.661L1449.48 213.123L1450.65 208.782L1451.42 213.031L1455.94 212.792L1451.93 214.98L1453.83 219.148L1450.52 215.494L1447.23 219.067Z" fill="#dee9f8" fill-rule="evenodd" opacity="1" stroke="none"/> <path d="M1521.96 610.714L1523.98 606.494L1520 604.308L1524.21 604.77L1525.38 600.429L1526.14 604.678L1530.67 604.439L1526.66 606.627L1528.56 610.795L1525.25 607.141L1521.96 610.714Z" fill="#dee9f8" fill-rule="evenodd" opacity="1" stroke="none"/> <path d="M1250 787.129L1252.02 782.909L1248.04 780.722L1252.25 781.185L1253.43 776.844L1254.19 781.093L1258.72 780.854L1254.7 783.042L1256.6 787.21L1253.3 783.556L1250 787.129Z" fill="#dee9f8" fill-rule="evenodd" opacity="1" stroke="none"/> <path d="M1132.57 616.097L1134.59 611.877L1130.61 609.69L1134.82 610.153L1136 605.812L1136.76 610.061L1141.29 609.822L1137.27 612.009L1139.17 616.178L1135.87 612.524L1132.57 616.097Z" fill="#dee9f8" fill-rule="evenodd" opacity="1" stroke="none"/> <path d="M1420.03 932.247L1422.05 928.027L1418.07 925.84L1422.28 926.303L1423.46 921.962L1424.22 926.211L1428.75 925.972L1424.73 928.16L1426.63 932.328L1423.32 928.674L1420.03 932.247Z" fill="#dee9f8" fill-rule="evenodd" opacity="1" stroke="none"/> <path d="M1272.02 1092.33L1274.04 1088.11L1270.06 1085.92L1274.27 1086.39L1275.44 1082.05L1276.2 1086.29L1280.73 1086.05L1276.72 1088.24L1278.62 1092.41L1275.31 1088.76L1272.02 1092.33Z" fill="#dee9f8" fill-rule="evenodd" opacity="1" stroke="none"/> <path d="M1026.55 963.665L1028.57 959.446L1024.59 957.259L1028.8 957.722L1029.97 953.381L1030.73 957.629L1035.26 957.39L1031.25 959.578L1033.15 963.746L1029.84 960.093L1026.55 963.665Z" fill="#dee9f8" fill-rule="evenodd" opacity="1" stroke="none"/> <path d="M941.972 778.619L939.285 774.792L935.427 777.186L937.897 773.742L934.69 770.591L938.766 772.011L940.78 767.948L940.717 772.519L945.281 772.91L940.474 773.998L941.972 778.619Z" fill="#dee9f8" fill-rule="evenodd" opacity="1" stroke="none"/> <path d="M794.82 885.063L792.133 881.237L788.275 883.63L790.745 880.187L787.538 877.036L791.614 878.456L793.628 874.393L793.565 878.963L798.129 879.354L793.322 880.443L794.82 885.063Z" fill="#dee9f8" fill-rule="evenodd" opacity="1" stroke="none"/> <path d="M736.573 757.017L733.885 753.19L730.028 755.584L732.498 752.14L729.291 748.989L733.367 750.409L735.381 746.346L735.318 750.917L739.881 751.307L735.075 752.396L736.573 757.017Z" fill="#dee9f8" fill-rule="evenodd" opacity="1" stroke="none"/> <path d="M511.567 890.399L508.879 886.572L505.022 888.966L507.492 885.522L504.285 882.371L508.361 883.791L510.374 879.728L510.312 884.299L514.875 884.69L510.069 885.778L511.567 890.399Z" fill="#dee9f8" fill-rule="evenodd" opacity="1" stroke="none"/> <path d="M395.073 720.779L392.385 716.952L388.527 719.346L390.997 715.903L387.79 712.751L391.866 714.171L393.88 710.109L393.817 714.679L398.381 715.07L393.574 716.159L395.073 720.779Z" fill="#dee9f8" fill-rule="evenodd" opacity="1" stroke="none"/> <path d="M314.855 583.532L312.167 579.705L308.31 582.099L310.78 578.655L307.573 575.504L311.649 576.924L313.662 572.861L313.6 577.432L318.163 577.823L313.357 578.911L314.855 583.532Z" fill="#dee9f8" fill-rule="evenodd" opacity="1" stroke="none"/> <path d="M203.656 780.962L200.968 777.135L197.11 779.529L199.58 776.085L196.373 772.934L200.45 774.354L202.463 770.291L202.4 774.861L206.964 775.252L202.157 776.341L203.656 780.962Z" fill="#dee9f8" fill-rule="evenodd" opacity="1" stroke="none"/> <path d="M145.408 988.996L142.721 985.169L138.863 987.563L141.333 984.12L138.126 980.968L142.202 982.388L144.216 978.326L144.153 982.896L148.716 983.287L143.91 984.376L145.408 988.996Z" fill="#dee9f8" fill-rule="evenodd" opacity="1" stroke="none"/> <path d="M338.875 882.29L336.187 878.464L332.33 880.857L334.8 877.414L331.593 874.263L335.669 875.683L337.682 871.62L337.62 876.19L342.183 876.581L337.377 877.67L338.875 882.29Z" fill="#dee9f8" fill-rule="evenodd" opacity="1" stroke="none"/> <path d="M413.008 1041.98L410.32 1038.15L406.463 1040.55L408.933 1037.1L405.726 1033.95L409.802 1035.37L411.815 1031.31L411.753 1035.88L416.316 1036.27L411.51 1037.36L413.008 1041.98Z" fill="#dee9f8" fill-rule="evenodd" opacity="1" stroke="none"/> <path d="M626.532 757.017L623.844 753.19L619.987 755.584L622.457 752.14L619.25 748.989L623.326 750.409L625.34 746.346L625.277 750.917L629.84 751.307L625.034 752.396L626.532 757.017Z" fill="#dee9f8" fill-rule="evenodd" opacity="1" stroke="none"/> <path d="M600.056 828.262L597.368 824.435L593.511 826.829L595.981 823.385L592.774 820.234L596.85 821.654L598.864 817.591L598.801 822.161L603.364 822.552L598.558 823.641L600.056 828.262Z" fill="#dee9f8" fill-rule="evenodd" opacity="1" stroke="none"/> <path d="M637.123 790.915L634.435 787.088L630.577 789.482L633.047 786.038L629.84 782.887L633.916 784.307L635.93 780.244L635.867 784.814L640.431 785.205L635.624 786.294L637.123 790.915Z" fill="#dee9f8" fill-rule="evenodd" opacity="1" stroke="none"/> <path d="M573.58 764.238L570.892 760.411L567.035 762.805L569.505 759.362L566.298 756.21L570.374 757.63L572.387 753.568L572.325 758.138L576.888 758.529L572.082 759.618L573.58 764.238Z" fill="#dee9f8" fill-rule="evenodd" opacity="1" stroke="none"/> <path d="M2043.78 328.072L2041.09 324.245L2037.23 326.639L2039.7 323.196L2036.49 320.044L2040.57 321.464L2042.58 317.402L2042.52 321.972L2047.08 322.363L2042.28 323.452L2043.78 328.072Z" fill="#dee9f8" fill-rule="evenodd" opacity="1" stroke="none"/> <path d="M2422.32 493.466L2419.63 489.639L2415.77 492.033L2418.24 488.59L2415.03 485.438L2419.11 486.858L2421.12 482.795L2421.06 487.366L2425.62 487.757L2420.82 488.846L2422.32 493.466Z" fill="#dee9f8" fill-rule="evenodd" opacity="1" stroke="none"/> <path d="M2522.93 807.638L2520.24 803.811L2516.38 806.205L2518.85 802.762L2515.64 799.61L2519.72 801.03L2521.73 796.967L2521.67 801.538L2526.23 801.929L2521.43 803.018L2522.93 807.638Z" fill="#dee9f8" fill-rule="evenodd" opacity="1" stroke="none"/> <path d="M1740 1026.65L1737.31 1022.82L1733.46 1025.21L1735.93 1021.77L1732.72 1018.62L1736.79 1020.04L1738.81 1015.98L1738.75 1020.55L1743.31 1020.94L1738.5 1022.03L1740 1026.65Z" fill="#dee9f8" fill-rule="evenodd" opacity="1" stroke="none"/> <path d="M1771.77 327.315L1769.08 323.489L1765.23 325.882L1767.7 322.439L1764.49 319.288L1768.57 320.708L1770.58 316.645L1770.52 321.215L1775.08 321.606L1770.27 322.695L1771.77 327.315Z" fill="#dee9f8" fill-rule="evenodd" opacity="1" stroke="none"/> <path d="M2793.18 973.032L2790.49 969.205L2786.63 971.599L2789.1 968.156L2785.9 965.004L2789.97 966.424L2791.99 962.361L2791.92 966.932L2796.49 967.323L2791.68 968.411L2793.18 973.032Z" fill="#dee9f8" fill-rule="evenodd" opacity="1" stroke="none"/> <path d="M2703.16 242.142L2700.47 238.315L2696.61 240.709L2699.08 237.266L2695.88 234.114L2699.95 235.534L2701.97 231.471L2701.9 236.042L2706.47 236.433L2701.66 237.521L2703.16 242.142Z" fill="#dee9f8" fill-rule="evenodd" opacity="1" stroke="none"/> <path d="M155.999 184.232L153.311 180.405L149.454 182.799L151.924 179.355L148.716 176.204L152.793 177.624L154.806 173.561L154.743 178.132L159.307 178.523L154.5 179.611L155.999 184.232Z" fill="#dee9f8" fill-rule="evenodd" opacity="1" stroke="none"/> <path d="M150.704 434.212L148.016 430.385L144.158 432.779L146.628 429.336L143.421 426.184L147.497 427.604L149.511 423.542L149.448 428.112L154.012 428.503L149.205 429.592L150.704 434.212Z" fill="#dee9f8" fill-rule="evenodd" opacity="1" stroke="none"/> <path d="M700.871 198.145L702.886 193.926L698.908 191.739L703.12 192.202L704.292 187.861L705.055 192.109L709.583 191.87L705.57 194.058L707.469 198.226L704.162 194.573L700.871 198.145Z" fill="#dee9f8" fill-rule="evenodd" opacity="1" stroke="none"/> </g> </svg>